<?xml version="1.0" standalone="no"?>
<!DOCTYPE svg PUBLIC "-//W3C//DTD SVG 20010904//EN"
 "http://www.w3.org/TR/2001/REC-SVG-20010904/DTD/svg10.dtd">
<svg version="1.0" xmlns="http://www.w3.org/2000/svg"
 width="450.000000pt" height="404.000000pt" viewBox="0 0 450.000000 404.000000"
 preserveAspectRatio="xMidYMid meet">

<g transform="translate(0.000000,404.000000) scale(0.100000,-0.100000)"
fill="#000000" stroke="none">
<path d="M1545 2438 c-3 -29 -5 -240 -3 -468 l3 -415 698 -3 697 -2 0 87 c0
49 1 255 1 458 1 204 1 376 0 383 -1 9 -147 12 -695 12 l-695 0 -6 -52z m1365
-348 c0 -198 -1 -360 -3 -360 -2 0 -66 63 -144 139 l-141 140 -123 -124 c-87
-87 -129 -122 -145 -121 -12 0 -20 6 -18 11 2 6 -72 86 -166 179 l-169 169
-207 -206 c-114 -114 -210 -207 -213 -207 -3 0 -5 166 -3 370 l2 370 665 0
665 0 0 -360z"/>
<path d="M2372 2255 c-55 -46 -51 -123 7 -158 36 -21 63 -21 102 -2 58 31 65
101 15 151 -42 42 -82 45 -124 9z"/>
</g>
</svg>
